<svg xmlns="http://www.w3.org/2000/svg" version="1.1" xmlns:xlink="http://www.w3.org/1999/xlink" xmlns:svgjs="http://svgjs.dev/svgjs" width="2000" height="186" viewBox="0 0 2000 186"><g transform="matrix(1,0,0,1,-1.2121153555184492,-0.847651989587888)"><svg viewBox="0 0 396 37" data-background-color="#729343" preserveAspectRatio="xMidYMid meet" height="186" width="2000" xmlns="http://www.w3.org/2000/svg" xmlns:xlink="http://www.w3.org/1999/xlink"><defs></defs><g id="tight-bounds" transform="matrix(1,0,0,1,0.23999889633367388,0.16861894416533119)"><svg viewBox="0 0 395.5199999999999 36.66276211166936" height="36.66276211166936" width="395.5199999999999"><g><svg viewBox="0 0 493.24221254228826 45.72113142665699" height="36.66276211166936" width="395.5199999999999"><g transform="matrix(1,0,0,1,0,6.318911796303535)"><svg viewBox="0 0 395.52 33.08330783404992" height="33.08330783404992" width="395.52"><g><svg viewBox="0 0 395.52 33.08330783404992" height="33.08330783404992" width="395.52"><g><svg viewBox="0 0 395.52 33.08330783404992" height="33.08330783404992" width="395.52"><g transform="matrix(1,0,0,1,0,0)"><svg width="395.52" viewBox="1.4200000762939453 -36.060001373291016 432.54998779296875 36.56999969482422" height="33.08330783404992" data-palette-color="#ffffff"><g class="undefined-text-0" data-fill-palette-color="primary" id="text-0"><path d="M18.24 0.51L18.24 0.51Q13.01 0.51 9.24-1.68 5.47-3.88 3.44-7.87 1.42-11.87 1.42-17.24L1.42-17.24 1.42-18.29Q1.42-23.46 3.39-27.47 5.37-31.47 9.06-33.76 12.74-36.06 17.85-36.06L17.85-36.06Q21.44-36.06 24.54-35.02 27.64-33.98 30-31.98L30-31.98 30-23.58 25-23.58 24.32-29.03Q23.51-29.61 22.55-30.03 21.58-30.44 20.45-30.66 19.31-30.88 17.99-30.88L17.99-30.88Q14.87-30.88 12.65-29.33 10.42-27.78 9.24-24.98 8.06-22.17 8.06-18.33L8.06-18.33 8.06-17.24Q8.06-13.35 9.3-10.52 10.55-7.69 12.85-6.16 15.16-4.64 18.36-4.64L18.36-4.64Q19.95-4.64 21.51-4.99 23.07-5.35 24.29-5.93L24.29-5.93 25-10.94 29.96-10.94 29.96-2.61Q27.91-1.27 24.88-0.38 21.85 0.51 18.24 0.51ZM47.87 0L33.57 0 33.57-4 37.4-4.74 37.4-30.79 33.57-31.52 33.57-35.55 50.22-35.55Q54.25-35.55 57.14-34.3 60.03-33.06 61.56-30.71 63.08-28.37 63.08-25.1L63.08-25.1Q63.08-21.97 61.57-19.58 60.06-17.19 57.33-15.83 54.61-14.48 51.02-14.45L51.02-14.45 44.04-14.43 44.04-4.74 47.87-4 47.87 0ZM64.65 0L56.56 0 50.17-15.87 56.27-17.11 61.74-4.69 64.65-4.05 64.65 0ZM44.04-30.42L44.04-19.56 50-19.56Q53.29-19.56 54.88-20.91 56.47-22.27 56.47-24.85L56.47-24.85Q56.47-27.39 54.9-28.91 53.34-30.42 50.22-30.42L50.22-30.42 44.04-30.42ZM83.74 0.51L83.74 0.51Q80.17 0.51 77.27-0.82 74.36-2.15 72.27-4.58 70.19-7.01 69.06-10.29 67.94-13.57 67.94-17.5L67.94-17.5 67.94-18.04Q67.94-21.95 69.06-25.23 70.19-28.52 72.27-30.94 74.36-33.37 77.25-34.72 80.15-36.06 83.71-36.06L83.71-36.06Q87.35-36.06 90.27-34.72 93.18-33.37 95.28-30.94 97.38-28.52 98.49-25.23 99.6-21.95 99.6-18.04L99.6-18.04 99.6-17.5Q99.6-13.57 98.49-10.29 97.38-7.01 95.3-4.58 93.21-2.15 90.28-0.82 87.35 0.51 83.74 0.51ZM83.74-4.71L83.74-4.71Q86.86-4.71 88.91-6.31 90.96-7.91 91.97-10.79 92.99-13.67 92.99-17.5L92.99-17.5 92.99-18.09Q92.99-21.88 91.96-24.73 90.94-27.59 88.87-29.2 86.81-30.81 83.71-30.81L83.71-30.81Q80.68-30.81 78.66-29.21 76.63-27.61 75.62-24.76 74.6-21.9 74.6-18.09L74.6-18.09 74.6-17.5Q74.6-13.7 75.62-10.8 76.63-7.91 78.67-6.31 80.71-4.71 83.74-4.71ZM119.38 0.51L119.38 0.51Q114.15 0.51 110.38-1.68 106.61-3.88 104.58-7.87 102.56-11.87 102.56-17.24L102.56-17.24 102.56-18.29Q102.56-23.46 104.53-27.47 106.51-31.47 110.2-33.76 113.88-36.06 118.99-36.06L118.99-36.06Q122.58-36.06 125.68-35.02 128.78-33.98 131.14-31.98L131.14-31.98 131.14-23.58 126.14-23.58 125.46-29.03Q124.65-29.61 123.69-30.03 122.72-30.44 121.59-30.66 120.45-30.88 119.13-30.88L119.13-30.88Q116.01-30.88 113.79-29.33 111.56-27.78 110.38-24.98 109.2-22.17 109.2-18.33L109.2-18.33 109.2-17.24Q109.2-13.35 110.44-10.52 111.69-7.69 113.99-6.16 116.3-4.64 119.5-4.64L119.5-4.64Q121.09-4.64 122.65-4.99 124.21-5.35 125.43-5.93L125.43-5.93 126.14-10.94 131.1-10.94 131.1-2.61Q129.05-1.27 126.02-0.38 122.99 0.51 119.38 0.51ZM148.87 0.51L148.87 0.51Q145.08 0.51 141.9-0.38 138.71-1.27 135.68-3.39L135.68-3.39 135.68-11.79 140.81-11.79 141.59-6.62Q142.79-5.69 144.7-5.13 146.62-4.57 148.87-4.57L148.87-4.57Q150.92-4.57 152.32-5.14 153.73-5.71 154.46-6.77 155.19-7.84 155.19-9.25L155.19-9.25Q155.19-10.62 154.53-11.66 153.87-12.7 152.37-13.54 150.87-14.38 148.31-15.14L148.31-15.14Q144.2-16.28 141.47-17.75 138.74-19.21 137.38-21.28 136.03-23.34 136.03-26.2L136.03-26.2Q136.03-29.05 137.6-31.26 139.17-33.47 141.97-34.74 144.77-36.01 148.4-36.04L148.4-36.04Q152.46-36.08 155.56-35.03 158.66-33.98 160.85-32.2L160.85-32.2 160.85-24.39 155.85-24.39 154.95-29.3Q153.97-29.96 152.38-30.42 150.8-30.88 148.72-30.88L148.72-30.88Q146.94-30.88 145.57-30.33 144.2-29.79 143.42-28.74 142.64-27.69 142.64-26.22L142.64-26.22Q142.64-24.95 143.32-24 144.01-23.05 145.62-22.24 147.23-21.44 149.99-20.58L149.99-20.58Q155.82-18.99 158.84-16.3 161.86-13.6 161.86-9.3L161.86-9.3Q161.86-6.32 160.23-4.11 158.61-1.9 155.69-0.7 152.77 0.51 148.87 0.51Z" fill="#ffffff" data-fill-palette-color="primary"></path><path d="M174.7 0L163.01 0 163.01-4 165.57-4.37 177.12-35.55 183.74-35.55 195.19-4.37 197.72-4 197.72 0 186.03 0 186.03-4 188.54-4.47 186.81-9.69 173.94-9.69 172.21-4.47 174.7-4 174.7 0ZM179.95-27.29L175.58-14.7 185.18-14.7 180.81-27.34 180.46-28.37 180.32-28.37 179.95-27.29ZM214.69 0L200.38 0 200.38-4 204.19-4.74 204.19-30.79 200.38-31.52 200.38-35.55 204.19-35.55 210.93-35.55 226.82-10.25 226.97-10.28 226.97-30.79 222.45-31.52 222.45-35.55 232.93-35.55 236.76-35.55 236.76-31.52 232.93-30.79 232.93 0 226.55 0 210.32-25.12 210.17-25.1 210.17-4.74 214.69-4 214.69 0ZM254.82 0L239.44 0 239.44-4 243.3-4.81 243.3-30.71 239.44-31.52 239.44-35.55 243.3-35.55 254.7-35.55Q259.46-35.55 263.06-33.3 266.66-31.05 268.69-27.12 270.72-23.19 270.72-18.09L270.72-18.09 270.72-17.43Q270.72-12.4 268.73-8.46 266.74-4.52 263.16-2.26 259.58 0 254.82 0L254.82 0ZM249.94-30.42L249.94-5.1 254.48-5.1Q257.53-5.1 259.66-6.71 261.78-8.33 262.92-11.11 264.05-13.89 264.05-17.43L264.05-17.43 264.05-18.14Q264.05-21.73 262.92-24.5 261.78-27.27 259.66-28.85 257.53-30.42 254.48-30.42L254.48-30.42 249.94-30.42Z" fill="#c0e2a0" data-fill-palette-color="secondary"></path><path d="M286.37 0.51L286.37 0.51Q282.59 0.51 279.4-0.38 276.21-1.27 273.19-3.39L273.19-3.39 273.19-11.79 278.31-11.79 279.09-6.62Q280.29-5.69 282.21-5.13 284.12-4.57 286.37-4.57L286.37-4.57Q288.42-4.57 289.82-5.14 291.23-5.71 291.96-6.77 292.69-7.84 292.69-9.25L292.69-9.25Q292.69-10.62 292.03-11.66 291.37-12.7 289.87-13.54 288.37-14.38 285.81-15.14L285.81-15.14Q281.71-16.28 278.97-17.75 276.24-19.21 274.88-21.28 273.53-23.34 273.53-26.2L273.53-26.2Q273.53-29.05 275.1-31.26 276.68-33.47 279.47-34.74 282.27-36.01 285.91-36.04L285.91-36.04Q289.96-36.08 293.06-35.03 296.16-33.98 298.36-32.2L298.36-32.2 298.36-24.39 293.35-24.39 292.45-29.3Q291.47-29.96 289.89-30.42 288.3-30.88 286.22-30.88L286.22-30.88Q284.44-30.88 283.07-30.33 281.71-29.79 280.93-28.74 280.14-27.69 280.14-26.22L280.14-26.22Q280.14-24.95 280.83-24 281.51-23.05 283.12-22.24 284.73-21.44 287.49-20.58L287.49-20.58Q293.33-18.99 296.34-16.3 299.36-13.6 299.36-9.3L299.36-9.3Q299.36-6.32 297.73-4.11 296.11-1.9 293.19-0.7 290.28 0.51 286.37 0.51ZM318.35 0.51L318.35 0.51Q314.78 0.51 311.88-0.82 308.97-2.15 306.89-4.58 304.8-7.01 303.68-10.29 302.55-13.57 302.55-17.5L302.55-17.5 302.55-18.04Q302.55-21.95 303.68-25.23 304.8-28.52 306.89-30.94 308.97-33.37 311.87-34.72 314.76-36.06 318.32-36.06L318.32-36.06Q321.96-36.06 324.88-34.72 327.8-33.37 329.9-30.94 332-28.52 333.11-25.23 334.22-21.95 334.22-18.04L334.22-18.04 334.22-17.5Q334.22-13.57 333.11-10.29 332-7.01 329.91-4.58 327.82-2.15 324.89-0.82 321.96 0.51 318.35 0.51ZM318.35-4.71L318.35-4.71Q321.47-4.71 323.53-6.31 325.58-7.91 326.59-10.79 327.6-13.67 327.6-17.5L327.6-17.5 327.6-18.09Q327.6-21.88 326.58-24.73 325.55-27.59 323.49-29.2 321.43-30.81 318.32-30.81L318.32-30.81Q315.3-30.81 313.27-29.21 311.24-27.61 310.23-24.76 309.22-21.9 309.22-18.09L309.22-18.09 309.22-17.5Q309.22-13.7 310.23-10.8 311.24-7.91 313.28-6.31 315.32-4.71 318.35-4.71ZM353.99 0.51L353.99 0.51Q348.77 0.51 344.99-1.68 341.22-3.88 339.2-7.87 337.17-11.87 337.17-17.24L337.17-17.24 337.17-18.29Q337.17-23.46 339.15-27.47 341.13-31.47 344.81-33.76 348.5-36.06 353.6-36.06L353.6-36.06Q357.19-36.06 360.29-35.02 363.39-33.98 365.76-31.98L365.76-31.98 365.76-23.58 360.75-23.58 360.07-29.03Q359.26-29.61 358.3-30.03 357.34-30.44 356.2-30.66 355.07-30.88 353.75-30.88L353.75-30.88Q350.62-30.88 348.4-29.33 346.18-27.78 344.99-24.98 343.81-22.17 343.81-18.33L343.81-18.33 343.81-17.24Q343.81-13.35 345.06-10.52 346.3-7.69 348.61-6.16 350.92-4.64 354.11-4.64L354.11-4.64Q355.7-4.64 357.26-4.99 358.83-5.35 360.05-5.93L360.05-5.93 360.75-10.94 365.71-10.94 365.71-2.61Q363.66-1.27 360.63-0.38 357.6 0.51 353.99 0.51ZM399.72-30.86L378.55-9.03 375.11-13.01 392.39-31.1 392.44-31.2 389.12-31.52 389.12-35.55 403.06-35.55 403.06-31.52 399.72-30.86ZM383.48 0L369.32 0 369.32-4 373.15-4.74 373.15-30.79 369.32-31.52 369.32-35.55 383.48-35.55 383.48-31.52 379.79-30.79 379.79-4.74 383.48-4 383.48 0ZM404.33 0L389.9 0 389.9-4 393.15-4.32 393.15-4.35 383.94-17.04 388.24-21.56 400.89-4.61 404.33-4 404.33 0ZM420.98 0.51L420.98 0.51Q417.19 0.51 414.01-0.38 410.82-1.27 407.79-3.39L407.79-3.39 407.79-11.79 412.92-11.79 413.7-6.62Q414.9-5.69 416.82-5.13 418.73-4.57 420.98-4.57L420.98-4.57Q423.03-4.57 424.43-5.14 425.84-5.71 426.57-6.77 427.3-7.84 427.3-9.25L427.3-9.25Q427.3-10.62 426.64-11.66 425.98-12.7 424.48-13.54 422.98-14.38 420.42-15.14L420.42-15.14Q416.32-16.28 413.58-17.75 410.85-19.21 409.49-21.28 408.14-23.34 408.14-26.2L408.14-26.2Q408.14-29.05 409.71-31.26 411.29-33.47 414.08-34.74 416.88-36.01 420.51-36.04L420.51-36.04Q424.57-36.08 427.67-35.03 430.77-33.98 432.97-32.2L432.97-32.2 432.97-24.39 427.96-24.39 427.06-29.3Q426.08-29.96 424.49-30.42 422.91-30.88 420.83-30.88L420.83-30.88Q419.05-30.88 417.68-30.33 416.32-29.79 415.53-28.74 414.75-27.69 414.75-26.22L414.75-26.22Q414.75-24.95 415.44-24 416.12-23.05 417.73-22.24 419.34-21.44 422.1-20.58L422.1-20.58Q427.94-18.99 430.95-16.3 433.97-13.6 433.97-9.3L433.97-9.3Q433.97-6.32 432.34-4.11 430.72-1.9 427.8-0.7 424.88 0.51 420.98 0.51Z" fill="#ffffff" data-fill-palette-color="primary"></path></g></svg></g></svg></g></svg></g></svg></g><g transform="matrix(1,0,0,1,403.33017498023116,0)"><svg viewBox="0 0 89.91203756205712 45.72113142665699" height="45.72113142665699" width="89.91203756205712"><g><svg xmlns="http://www.w3.org/2000/svg" xmlns:xlink="http://www.w3.org/1999/xlink" version="1.1" x="0" y="0" viewBox="0 29.188873291015625 97.46350860595703 49.561126708984375" enable-background="new 0 0 100 100" xml:space="preserve" height="45.72113142665699" width="89.91203756205712" class="icon-icon-0" data-fill-palette-color="accent" id="icon-0"><g fill="#ffffff" data-fill-palette-color="accent"><path d="M93.795 78.75H0v-2h93.795c0.439 0 0.759-0.129 1.004-0.405 0.732-0.823 0.695-2.712 0.625-3.309-0.004-0.039-0.007-0.08-0.007-0.119 0-3.455-1.601-3.625-1.668-3.63l-52.97 0.001c-4.058 0-5.006-1.596-5.21-2.546-0.405-1.888 1.434-4.001 4.8-5.516 5.29-2.38 52.082-21.945 52.69-22.199-0.001 0-0.001 0-0.001 0-0.011 0 1.175-0.665 1.411-1.727 0.137-0.619-0.081-1.316-0.648-2.073-2.281-3.041-6.475-5.929-13.499-2.417-5.63 2.815-50.546 21.292-52.989 21.292-1.86 0-3.213 0.008-3.214 0.008-0.309 0.029-0.61-0.146-0.801-0.395s-0.252-0.574-0.167-0.877c0.011-0.039 1.07-3.919-0.716-6.168-0.962-1.213-2.644-1.772-5.023-1.671-4.408 0.194-6.195 2.924-6.397 5.414-0.178 2.197 0.879 4.792 3.19 5.276 0.43 0.09 0.751 0.449 0.791 0.887 0.041 0.438-0.21 0.851-0.616 1.018L4.212 61.76c-0.121 0.049-0.25 0.074-0.379 0.074H0v-2h3.636l7.916-3.244c-1.723-1.356-2.742-3.741-2.531-6.339 0.258-3.187 2.588-6.998 8.302-7.25 3.057-0.136 5.301 0.684 6.685 2.434 1.675 2.118 1.568 5.02 1.326 6.67 0.539-0.002 1.225-0.003 1.999-0.003 2.503-0.345 44.909-17.487 52.095-21.081 8.696-4.346 13.753 0.018 15.993 3.006 0.939 1.252 1.274 2.506 0.997 3.727-0.454 1.994-2.426 3.039-2.51 3.083-0.548 0.233-47.445 19.843-52.719 22.215-2.747 1.236-3.797 2.657-3.665 3.271 0.072 0.334 0.844 0.966 3.255 0.966h53.016c0.164 0.003 3.598 0.126 3.622 5.571 0.058 0.534 0.27 3.242-1.119 4.81C95.672 78.376 94.807 78.75 93.795 78.75z" fill="#ffffff" data-fill-palette-color="accent"></path></g><g fill="#ffffff" data-fill-palette-color="accent"><circle cx="17.365" cy="50" r="2.2" fill="#ffffff" data-fill-palette-color="accent"></circle></g><g fill="#ffffff" data-fill-palette-color="accent"><polygon points="51.468,65.872 43.756,61.506 44.741,59.766 50.277,62.899 52.302,56.203 58.555,59.442 60.592,52.701    66.846,55.941 68.884,49.2 75.137,52.439 77.175,45.698 83.427,48.938 85.464,42.197 91.706,45.431 93.644,38.757 95.563,39.315    92.948,48.327 86.683,45.081 84.646,51.822 78.392,48.582 76.354,55.322 70.101,52.083 68.062,58.824 61.811,55.584 59.773,62.325    53.519,59.086  " fill="#ffffff" data-fill-palette-color="accent"></polygon></g><g fill="#ffffff" data-fill-palette-color="accent"><polygon points="76.77,69.276 72.177,63.881 67.818,68.865 63.23,63.968 58.885,69.183 57.348,67.901 63.143,60.948 67.768,65.885    72.196,60.818 76.732,66.146 81.167,60.676 85.732,66.038 90.25,60.463 95.427,67.966 93.78,69.103 90.121,63.799 85.77,69.167    81.204,63.805  " fill="#ffffff" data-fill-palette-color="accent"></polygon></g></svg></g></svg></g></svg></g></svg><rect width="395.5199999999999" height="36.66276211166936" fill="none" stroke="none" visibility="hidden"></rect></g></svg></g></svg>